<svg fill="none" height="512" viewBox="0 0 512 512" width="512" xmlns="http://www.w3.org/2000/svg"><path d="m64 44c0-8.8366 7.1634-16 16-16h352c8.837 0 16 7.1634 16 16v424c0 8.837-7.163 16-16 16h-352c-8.8365 0-16-7.163-16-16z" fill="#598bd7"/><path d="m64 44c0-8.8366 7.1634-16 16-16h328c8.837 0 16 7.1634 16 16v400c0 8.837-7.163 16-16 16h-328c-8.8366 0-16-7.163-16-16z" fill="#73cdff"/><path clip-rule="evenodd" d="m56 44c0-13.2548 10.7452-24 24-24h352c13.255 0 24 10.7452 24 24v424c0 13.255-10.745 24-24 24h-352c-13.2548 0-24-10.745-24-24zm24-8c-4.4183 0-8 3.5817-8 8v424c0 4.418 3.5817 8 8 8h352c4.418 0 8-3.582 8-8v-424c0-4.4183-3.582-8-8-8z" fill="#001236" fill-rule="evenodd"/><path d="m408 132c0 35.346-28.654 64-64 64s-64-28.654-64-64c0-35.3462 28.654-64 64-64s64 28.6538 64 64z" fill="#fff"/><g clip-rule="evenodd" fill="#001236" fill-rule="evenodd"><path d="m344.002 84c3.03 0 5.8 1.712 7.155 4.4223l32 63.9997c1.976 3.952.374 8.758-3.578 10.733-3.951 1.976-8.757.375-10.733-3.577l-24.844-49.689-24.845 49.689c-1.976 3.952-6.781 5.553-10.733 3.577-3.952-1.975-5.554-6.781-3.578-10.733l32-63.9997c1.355-2.7103 4.126-4.4223 7.156-4.4223z"/><path d="m364 148h-40v-16h40z"/><path d="m344 76c-30.928 0-56 25.072-56 56s25.072 56 56 56 56-25.072 56-56-25.072-56-56-56zm-72 56c0-39.7645 32.235-72 72-72s72 32.2355 72 72c0 39.765-32.235 72-72 72s-72-32.235-72-72z"/><path d="m104 92c0-4.4183 3.582-8 8-8h120c4.418 0 8 3.5817 8 8s-3.582 8-8 8h-120c-4.418 0-8-3.5817-8-8z"/><path d="m104 148c0-4.418 3.582-8 8-8h120c4.418 0 8 3.582 8 8s-3.582 8-8 8h-120c-4.418 0-8-3.582-8-8z"/><path d="m104 204c0-4.418 3.582-8 8-8h120c4.418 0 8 3.582 8 8s-3.582 8-8 8h-120c-4.418 0-8-3.582-8-8z"/><path d="m232 260c0-4.418 3.582-8 8-8h160c4.418 0 8 3.582 8 8s-3.582 8-8 8h-160c-4.418 0-8-3.582-8-8z"/><path d="m248 316c0-4.418 3.582-8 8-8h128c4.418 0 8 3.582 8 8s-3.582 8-8 8h-128c-4.418 0-8-3.582-8-8z"/><path d="m232 372c0-4.418 3.582-8 8-8h160c4.418 0 8 3.582 8 8s-3.582 8-8 8h-160c-4.418 0-8-3.582-8-8z"/><path d="m248 428c0-4.418 3.582-8 8-8h128c4.418 0 8 3.582 8 8s-3.582 8-8 8h-128c-4.418 0-8-3.582-8-8z"/><path d="m196.24 245.217c3.747 2.342 4.886 7.277 2.544 11.024l-40 64c-1.292 2.067-3.456 3.433-5.879 3.709-2.422.276-4.838-.568-6.562-2.292l-32-32c-3.124-3.124-3.124-8.19 0-11.314s8.19-3.124 11.314 0l24.889 24.889 34.67-55.472c2.342-3.747 7.277-4.886 11.024-2.544z"/><path d="m196.24 357.217c3.747 2.342 4.886 7.277 2.544 11.024l-40 64c-1.292 2.067-3.456 3.433-5.879 3.709-2.422.276-4.838-.568-6.562-2.292l-32-32c-3.124-3.124-3.124-8.19 0-11.314s8.19-3.124 11.314 0l24.889 24.889 34.67-55.472c2.342-3.747 7.277-4.886 11.024-2.544z"/></g></svg>