<svg id="glipy_copy_2" viewBox="0 0 64 64" xmlns="http://www.w3.org/2000/svg" data-name="glipy copy 2"><g fill="#f00" opacity=".8"><path d="m21.94993 31.75573c8.00634 3.8833 17.97357-2.30805 17.83984-11.41016-.6911-16.67352-24.44958-16.67224-25.13989.00025a12.58291 12.58291 0 0 0 7.30005 11.40991z"/><path d="m47.55991 31.29577c-10.86682-.04541-16.48091 13.21123-9.03979 20.97003 7.53 8.15564 21.55371 2.62854 21.47967-8.53028a12.4531 12.4531 0 0 0 -12.43988-12.43975zm5.53 13.44h-11.06a1 1 0 1 1 0-2h11.06a1.00017 1.00017 0 0 1 -.00003 2z"/><path d="m37.46989 33.40575-2.41-.8a14.45923 14.45923 0 0 1 -15.68 0l-8.05 2.69a10.71206 10.71206 0 0 0 -7.33 10.17v5.03a3.78128 3.78128 0 0 0 3.78 3.77h29.91a14.42821 14.42821 0 0 1 -.22-20.86z"/></g></svg>