<svg id="Слой_1" enable-background="new 0 0 512 512" height="512" viewBox="0 0 512 512" width="512" xmlns="http://www.w3.org/2000/svg"><g><g><g><g><path d="m444.8 211h-377.6c-18.3 0-33.2 15.2-33.2 33.9v16.1h444v-16.1c0-18.7-14.9-33.9-33.2-33.9z" fill="#ff808c"/><path d="m478 270h-444c-5 0-9-4-9-9v-16.1c0-23.7 18.9-42.9 42.2-42.9h377.5c23.3 0 42.2 19.2 42.2 42.9v16.1c.1 5-3.9 9-8.9 9zm-435-18h426v-7.1c0-13.7-10.9-24.9-24.2-24.9h-377.6c-13.3 0-24.2 11.2-24.2 24.9z" fill="#5e1235"/></g><g><path d="m34 261v210c0 17.7 14.3 32 32 32h380c17.7 0 32-14.3 32-32v-210z" fill="#3efffa"/><path d="m446 512h-380c-22.6 0-41-18.4-41-41v-210c0-5 4-9 9-9h444c5 0 9 4 9 9v210c0 22.6-18.4 41-41 41zm-403-242v201c0 12.7 10.3 23 23 23h380c12.7 0 23-10.3 23-23v-201z" fill="#5e1235"/></g></g><path d="m72 474c-5 0-9-4-9-9v-80c0-5 4-9 9-9s9 4 9 9v80c0 5-4 9-9 9z" fill="#fff"/></g><g fill="#5e1235"><path d="m401 346.7h-290c-4.8 0-8.7-3.9-8.7-8.7s3.9-8.7 8.7-8.7h290c4.8 0 8.7 3.9 8.7 8.7s-3.9 8.7-8.7 8.7z"/><path d="m249.6 385.1h-138.6c-4.8 0-8.7-3.9-8.7-8.7s3.9-8.7 8.7-8.7h138.6c4.8 0 8.7 3.9 8.7 8.7s-3.8 8.7-8.7 8.7z"/><path d="m374.6 385.1h-76.6c-4.8 0-8.7-3.9-8.7-8.7s3.9-8.7 8.7-8.7h76.6c4.8 0 8.7 3.9 8.7 8.7s-3.9 8.7-8.7 8.7z"/><path d="m374.5 423.4h-263.5c-4.8 0-8.7-3.9-8.7-8.7s3.9-8.7 8.7-8.7h263.5c4.8 0 8.7 3.9 8.7 8.7s-3.9 8.7-8.7 8.7z"/><path d="m156.6 461.7h-45.6c-4.8 0-8.7-3.9-8.7-8.7s3.9-8.7 8.7-8.7h45.6c4.8 0 8.7 3.9 8.7 8.7s-3.9 8.7-8.7 8.7z"/><path d="m243 461.7h-45.6c-4.8 0-8.7-3.9-8.7-8.7s3.9-8.7 8.7-8.7h45.6c4.8 0 8.7 3.9 8.7 8.7s-3.9 8.7-8.7 8.7z"/></g><g><g><g><path d="m171 73h170v100h-170z" fill="#fff"/><path d="m341 182h-170c-5 0-9-4-9-9v-100c0-5 4-9 9-9h170c5 0 9 4 9 9v100c0 5-4 9-9 9zm-161-18h152v-82h-152z" fill="#5e1235"/></g><g><path d="m396 60v66" fill="#ffd150"/><path d="m396 135c-5 0-9-4-9-9v-66c0-5 4-9 9-9s9 4 9 9v66c0 5-4 9-9 9z" fill="#5e1235"/></g><g><path d="m256 9 140 51-140 51-140-51z" fill="#627ebd"/><path d="m256 120c-1 0-2.1-.2-3.1-.5l-140-51c-3.6-1.3-5.9-4.7-5.9-8.5s2.4-7.2 5.9-8.5l140-51c2-.7 4.2-.7 6.2 0l140 51c3.6 1.3 5.9 4.7 5.9 8.5s-2.4 7.2-5.9 8.5l-140 51c-1 .3-2.1.5-3.1.5zm-113.7-60 113.7 41.4 113.7-41.4-113.7-41.4z" fill="#5e1235"/></g></g><g><g><path d="m160 173h192v126h-192z" fill="#ffd150"/><path d="m352 308h-192c-5 0-9-4-9-9v-126c0-5 4-9 9-9h192c5 0 9 4 9 9v126c0 5-4 9-9 9zm-183-18h174v-108h-174z" fill="#5e1235"/></g></g><g fill="#5e1235"><path d="m232.9 269.7c-2.1 0-4.3-.8-6-2.3l-26.9-25c-1.8-1.7-2.8-4-2.8-6.4s1-4.7 2.8-6.4l26.9-25c3.5-3.3 9.1-3.1 12.4.4s3.1 9.1-.4 12.4l-20 18.6 20 18.6c3.5 3.3 3.7 8.8.4 12.4-1.7 1.8-4.1 2.7-6.4 2.7z"/><path d="m279.1 269.7c-2.3 0-4.7-.9-6.4-2.8-3.3-3.5-3.1-9.1.4-12.4l20-18.6-20-18.6c-3.5-3.3-3.7-8.8-.4-12.4 3.3-3.5 8.8-3.7 12.4-.4l26.9 25c1.8 1.7 2.8 4 2.8 6.4s-1 4.7-2.8 6.4l-26.9 25c-1.7 1.7-3.8 2.4-6 2.4z"/></g></g></g></svg>