<svg id="Layer_1" height="512" viewBox="0 0 64 64" width="512" xmlns="http://www.w3.org/2000/svg" data-name="Layer 1"><circle cx="10.002" cy="28.483" fill="#ffd9a6" r="3.5"/><path d="m17 36.983a4 4 0 0 0 -4-4h-6a4 4 0 0 0 -4 4v9h3v13h8v-13h3z" fill="#7cb2f8"/><circle cx="54" cy="28.5" fill="#ffd9a6" r="3.5"/><path d="m61 37a4 4 0 0 0 -4-4h-6a4 4 0 0 0 -4 4v9h3v13h8v-13h3z" fill="#7cb2f8"/><path d="m2 5.563.471-.22a4.819 4.819 0 0 1 4.529.22 4.819 4.819 0 0 0 4.529.22l.471-.22v7.781l-.471.22a4.819 4.819 0 0 1 -4.529-.22 4.819 4.819 0 0 0 -4.529-.22l-.471.22z" fill="#85ccbe"/><path d="m62 5.563-.471-.22a4.819 4.819 0 0 0 -4.529.22 4.819 4.819 0 0 1 -4.529.22l-.471-.22v7.781l.471.22a4.819 4.819 0 0 0 4.529-.22 4.819 4.819 0 0 1 4.529-.22l.471.22z" fill="#d98d8e"/><g fill="#404040"><path d="m14 59.982a1 1 0 0 0 1-1v-12h2a1 1 0 0 0 1-1v-9a5.006 5.006 0 0 0 -5-5h-.2a4.5 4.5 0 1 0 -5.587 0h-.213a5.007 5.007 0 0 0 -5 5v9a1 1 0 0 0 1 1h2v12a1 1 0 0 0 1 1zm-4-34a2.5 2.5 0 1 1 -2.5 2.5 2.5 2.5 0 0 1 2.5-2.5zm-5 12v7h-1v-8a3 3 0 0 1 3-3h6a3 3 0 0 1 3 3v8h-1v-7h-2v20h-2v-13h-2v13h-2v-20z"/><path d="m2.9 14.03a3.832 3.832 0 0 1 3.6.177 5.891 5.891 0 0 0 2.978.82 5.776 5.776 0 0 0 1.522-.216v6.189h2v-15.031-.407a1 1 0 0 0 -1.423-.906l-.472.22a3.826 3.826 0 0 1 -3.605-.176 5.808 5.808 0 0 0 -5.456-.261l-.471.219a1 1 0 0 0 -.573.904v7.782a1 1 0 0 0 1.423.906zm.1-7.83a3.839 3.839 0 0 1 3.5.225 5.819 5.819 0 0 0 4.5.613v5.666a3.831 3.831 0 0 1 -3.5-.225 5.9 5.9 0 0 0 -2.978-.82 5.756 5.756 0 0 0 -1.522.208z"/><path d="m57 31.982h-.207a4.5 4.5 0 1 0 -5.587 0h-.206a5.006 5.006 0 0 0 -5 5v9a1 1 0 0 0 1 1h2v12a1 1 0 0 0 1 1h8a1 1 0 0 0 1-1v-12h2a1 1 0 0 0 1-1v-9a5.007 5.007 0 0 0 -5-5zm-3-6a2.5 2.5 0 1 1 -2.5 2.5 2.5 2.5 0 0 1 2.5-2.5zm6 19h-1v-7h-2v20h-2v-13h-2v13h-2v-20h-2v7h-1v-8a3 3 0 0 1 3-3h6a3 3 0 0 1 3 3z"/><path d="m62.423 4.656-.471-.219a5.808 5.808 0 0 0 -5.452.263 3.834 3.834 0 0 1 -3.6.177l-.471-.22a1 1 0 0 0 -1.429.905v15.438h2v-6.189a5.782 5.782 0 0 0 1.529.215 5.886 5.886 0 0 0 2.977-.819 3.834 3.834 0 0 1 3.6-.177l.471.22a1 1 0 0 0 1.423-.906v-7.782a1 1 0 0 0 -.577-.906zm-1.423 7.211a5.816 5.816 0 0 0 -4.5.613 3.836 3.836 0 0 1 -3.5.225v-5.666a5.82 5.82 0 0 0 4.5-.612 3.845 3.845 0 0 1 3.5-.227z"/><path d="m34.2 3.4-6 8a1 1 0 0 0 0 1.2l5.55 7.4-5.55 7.4a1 1 0 0 0 0 1.2l5.55 7.4-5.55 7.4a1 1 0 0 0 0 1.2l5.55 7.4-5.55 7.4 1.6 1.2 6-8a1 1 0 0 0 0-1.2l-5.55-7.405 5.55-7.4a1 1 0 0 0 0-1.2l-5.55-7.4 5.55-7.4a1 1 0 0 0 0-1.2l-5.55-7.395 5.55-7.4z"/></g></svg>