<?xml version="1.0" encoding="iso-8859-1"?>
<!-- Generator: Adobe Illustrator 19.0.0, SVG Export Plug-In . SVG Version: 6.00 Build 0)  -->
<svg version="1.1" id="Layer_1" xmlns="http://www.w3.org/2000/svg" xmlns:xlink="http://www.w3.org/1999/xlink" x="0px" y="0px"
	 viewBox="0 0 512 512" style="enable-background:new 0 0 512 512;" xml:space="preserve">
<g>
	<g>
		<path d="M256,203.755c-28.808,0-52.245,23.437-52.245,52.245s23.437,52.245,52.245,52.245s52.245-23.437,52.245-52.245
			S284.808,203.755,256,203.755z"/>
	</g>
</g>
<g>
	<g>
		<path d="M88.816,0H15.673C7.018,0,0,7.018,0,15.673v73.143c0,8.656,7.018,15.673,15.673,15.673
			c8.656,0,15.673-7.018,15.673-15.673V31.347h57.469c8.656,0,15.673-7.018,15.673-15.673C104.49,7.018,97.472,0,88.816,0z"/>
	</g>
</g>
<g>
	<g>
		<path d="M88.816,480.653H31.347v-57.469c0-8.656-7.018-15.673-15.673-15.673C7.018,407.51,0,414.528,0,423.184v73.143
			C0,504.982,7.018,512,15.673,512h73.143c8.656,0,15.673-7.018,15.673-15.673S97.472,480.653,88.816,480.653z"/>
	</g>
</g>
<g>
	<g>
		<path d="M496.32,0h-73.143c-8.656,0-15.673,7.018-15.673,15.673c0,8.656,7.018,15.673,15.673,15.673h57.469v57.469
			c0,8.656,7.018,15.673,15.673,15.673s15.673-7.018,15.673-15.673V15.673C511.994,7.018,504.976,0,496.32,0z"/>
	</g>
</g>
<g>
	<g>
		<path d="M496.32,407.51c-8.656,0-15.673,7.018-15.673,15.673v57.469h-57.469c-8.656,0-15.673,7.018-15.673,15.673
			S414.521,512,423.177,512h73.143c8.656,0,15.673-7.018,15.673-15.673v-73.143C511.994,414.528,504.976,407.51,496.32,407.51z"/>
	</g>
</g>
<g>
	<g>
		<path d="M509.893,248.152C459.042,160.25,364.08,101.6,256,101.6c-108.145,0-203.074,58.704-253.893,146.552
			c-2.809,4.856-2.809,10.841,0,15.696C52.958,351.75,147.92,410.4,256,410.4c108.145,0,203.074-58.704,253.893-146.552
			C512.702,258.993,512.702,253.007,509.893,248.152z M256,360.49c-57.616,0-104.49-46.874-104.49-104.49S198.384,151.51,256,151.51
			S360.49,198.384,360.49,256S313.616,360.49,256,360.49z"/>
	</g>
</g>
<g>
</g>
<g>
</g>
<g>
</g>
<g>
</g>
<g>
</g>
<g>
</g>
<g>
</g>
<g>
</g>
<g>
</g>
<g>
</g>
<g>
</g>
<g>
</g>
<g>
</g>
<g>
</g>
<g>
</g>
</svg>
